<?xml version="1.0" encoding="utf-8"?>
<!-- Generator: Adobe Illustrator 23.1.1, SVG Export Plug-In . SVG Version: 6.00 Build 0)  -->
<svg version="1.1" id="Laag_1" xmlns="http://www.w3.org/2000/svg" xmlns:xlink="http://www.w3.org/1999/xlink" x="0px" y="0px"
	 viewBox="0 0 195 74.5" style="enable-background:new 0 0 195 74.5;" xml:space="preserve">
<g>
	<g>
		<path d="M106.9,59c-0.1-0.2-0.1-0.4-0.2-0.6c-0.1-0.2-0.2-0.4-0.3-0.6c-0.3-0.4-0.6-0.7-1-0.9c-0.4-0.2-0.8-0.3-1.3-0.3H104
			c-0.5,0-0.9,0.1-1.3,0.3c-0.4,0.2-0.7,0.5-1,0.9c-0.2,0.2-0.3,0.4-0.4,0.6c-0.1,0.2-0.2,0.4-0.2,0.7c-0.1,0.2-0.1,0.5-0.1,0.7
			c0,0.2,0,0.5,0,0.8c0,0.3,0,0.6,0,0.8c0,0.2,0.1,0.5,0.1,0.7c0.1,0.2,0.1,0.4,0.2,0.6c0.1,0.2,0.2,0.4,0.3,0.6
			c0.2,0.3,0.5,0.6,0.9,0.7c0.4,0.2,0.8,0.2,1.4,0.2h0.1c0.6,0,1.1-0.1,1.4-0.2c0.4-0.2,0.7-0.4,0.9-0.7c0.1-0.2,0.2-0.4,0.3-0.5
			c0.1-0.2,0.2-0.4,0.2-0.6c0.1-0.2,0.1-0.4,0.1-0.7c0-0.2,0-0.5,0-0.8c0-0.3,0-0.6,0-0.9C107,59.4,107,59.2,106.9,59z"/>
		<path d="M165.8,59c-0.1-0.2-0.1-0.4-0.2-0.6c-0.1-0.2-0.2-0.4-0.3-0.6c-0.3-0.4-0.6-0.7-1-0.9c-0.4-0.2-0.8-0.3-1.3-0.3H163
			c-0.5,0-0.9,0.1-1.3,0.3c-0.4,0.2-0.7,0.5-1,0.9c-0.1,0.2-0.3,0.4-0.4,0.6c-0.1,0.2-0.2,0.4-0.2,0.7c-0.1,0.2-0.1,0.5-0.1,0.7
			c0,0.2,0,0.5,0,0.8c0,0.3,0,0.6,0,0.8s0.1,0.5,0.1,0.7c0.1,0.2,0.1,0.4,0.2,0.6c0.1,0.2,0.2,0.4,0.3,0.6c0.2,0.3,0.5,0.6,0.9,0.7
			c0.4,0.2,0.8,0.2,1.4,0.2h0.1c0.6,0,1.1-0.1,1.4-0.2c0.4-0.2,0.7-0.4,0.9-0.7c0.1-0.2,0.2-0.4,0.3-0.5c0.1-0.2,0.2-0.4,0.2-0.6
			c0.1-0.2,0.1-0.4,0.1-0.7c0-0.2,0-0.5,0-0.8c0-0.3,0-0.6,0-0.9C166,59.4,165.9,59.2,165.8,59z"/>
		<path d="M191.4,66.5l-0.1-7.5c0-1-0.1-1.9-0.4-2.7c-0.3-0.9-0.7-1.8-1.3-2.5c0,0,0,0,0-0.1c-0.8-1-1.7-1.7-2.8-2.2
			c-1.1-0.5-2.3-0.8-3.5-0.8h0c-0.2,0-0.4,0-0.6,0c-0.3,0-0.6,0-0.9,0.1c-0.4,0-0.7,0.1-1.1,0.2c-0.3,0.1-0.5,0.2-0.8,0.3
			c-0.2-0.1-0.5-0.2-0.8-0.3c-0.7-0.2-1.4-0.3-2.2-0.3c-0.5,0-0.9,0-1.3,0.1c-0.4,0.1-0.8,0.1-1.1,0.2c-0.1,0-0.2,0-0.2,0.1h-2.5
			c-1.2,0-2.3,0.6-3,1.5c-0.6-0.4-1.2-0.8-1.8-1.1c-1.1-0.5-2.4-0.8-3.7-0.8c0,0,0,0-0.1,0h-0.1c0,0,0,0,0,0c-2.5,0-4.7,0.9-6.3,2.6
			c-0.3-0.3-0.5-0.5-0.9-0.8c-0.8-0.6-1.7-1.1-2.7-1.4c-0.9-0.3-1.9-0.4-2.9-0.4c-0.6,0-1.3,0.1-1.9,0.2c-0.6,0.1-1.2,0.3-1.8,0.5
			c-0.6,0.3-1.3,0.6-1.8,1c-0.5,0.4-1,0.8-1.5,1.4c-0.9,1-1.5,2.1-1.9,3.4c-0.2,0.6-0.3,1.2-0.4,1.9c0,0.1,0,0.2,0,0.3
			c-0.4-0.1-0.7-0.1-1.1-0.1c-0.8,0-1.6,0.2-2.3,0.5c-0.5,0.2-1,0.5-1.5,0.9c0,0-0.1-0.1-0.1-0.1c1.2-0.6,2.1-1.9,2.1-3.4v-1.1
			c0-0.8-0.3-1.6-0.8-2.3l-0.9-1.2c-0.5-0.6-1.2-1.1-1.9-1.3l0,0c0-0.9-0.3-1.7-0.8-2.4l-1-1.4c-0.7-0.9-1.8-1.5-3-1.5h-1.3
			c-2,0-3.6,1.6-3.8,3.5l-0.1,1.6c-0.5,0.1-1.1,0.3-1.5,0.6c-0.1,0-0.1-0.1-0.2-0.1c-1.1-0.6-2.5-0.9-4-0.9c-0.7,0-1.3,0.1-1.9,0.2
			c-0.3,0.1-0.6,0.1-0.9,0.2c-0.2,0-0.5-0.1-0.7-0.1h-2.6c-1.1,0-2.1,0.5-2.8,1.3c0,0-0.1,0.1-0.1,0.1c-0.5-0.4-1.1-0.8-1.7-1
			c-1.1-0.5-2.4-0.8-3.7-0.8c0,0,0,0-0.1,0H104c0,0,0,0,0,0c-1.4,0-2.7,0.3-3.9,0.8l0.4-1.5c0.3-1,0.1-2.1-0.4-3l-0.1-0.1
			c0-0.1-0.1-0.1-0.1-0.2c-0.3-0.4-0.5-0.7-0.9-1c-0.4-0.3-0.8-0.6-1.2-0.8c-0.7-0.4-1.5-0.6-2.2-0.6c-0.4,0-0.8-0.1-1.1-0.1h-0.6
			c-0.2,0-0.4,0-0.6,0c-0.2,0-0.4,0-0.6,0c-0.3,0-0.6,0.1-0.9,0.2c-0.5,0.1-0.9,0.3-1.3,0.5c-0.4,0.2-0.8,0.4-1.1,0.7
			c-0.4,0.3-0.7,0.6-0.9,1c-0.1,0.2-0.3,0.4-0.4,0.6c0,0.1-0.1,0.1-0.1,0.2c-0.3,0.6-0.5,1.3-0.6,2.1c-0.1,0.5-0.1,1.1-0.1,1.8
			c-1.5,0.5-2.5,1.9-2.5,3.6v2.3c0,1.6,0.9,2.9,2.3,3.5l-0.1,6c0,1,0.4,2,1.1,2.7c0.7,0.7,1.7,1.1,2.7,1.1h2.2c1.6,0,3-1,3.6-2.6
			l0.2-0.6c0.1,0.2,0.3,0.4,0.4,0.5c0.9,1,1.9,1.8,3.1,2.3c1.1,0.5,2.4,0.7,3.7,0.7h0.5c2,0,3.8-0.6,5.3-1.6c0,0,0,0,0,0
			c0.7,0.8,1.7,1.2,2.7,1.2h3.1c0.8,0,1.6-0.3,2.2-0.7c0.6,0.5,1.4,0.7,2.2,0.7h3.1c1.1,0,2.1-0.5,2.8-1.3c0.6,0.5,1.3,1,2.1,1.3
			c0.8,0.3,1.8,0.5,2.7,0.5c0.4,0,0.7,0,1.1,0c0.3,0,0.6,0,0.8-0.1c0.3,0,0.5-0.1,0.8-0.1l0.4-0.1c0.2,0,0.4-0.1,0.6-0.1
			c0.2,0,0.4-0.1,0.6-0.2c0.3-0.1,0.6-0.2,0.8-0.3c0.2-0.1,0.4-0.2,0.6-0.4c0.3,0.3,0.7,0.5,1.1,0.6c0.7,0.3,1.5,0.5,2.3,0.5
			c0.8,0,1.5-0.2,2.3-0.5c0.7-0.3,1.3-0.7,1.8-1.3c0,0,0.1-0.1,0.1-0.1c0.6,0.5,1.3,1,2.1,1.3c1.1,0.5,2.4,0.7,3.8,0.7
			c0.4,0,0.7,0,1.1,0c0.5,0,1-0.1,1.5-0.2c0.5-0.1,1.1-0.3,1.6-0.4c0.6-0.2,1.2-0.6,1.7-1c0,0,0,0,0.1,0c0.3-0.2,0.5-0.5,0.8-0.7
			c0.7,0.7,1.6,1.3,2.5,1.7c1.1,0.5,2.4,0.7,3.7,0.7h0.5c2,0,3.9-0.6,5.4-1.7c0,0,0.1,0.1,0.1,0.1c0.7,0.7,1.7,1.1,2.7,1.1h3.1
			c0.6,0,1.2-0.2,1.8-0.4c0.5,0.3,1.1,0.4,1.8,0.4h3.1c0.6,0,1.2-0.2,1.8-0.4c0.5,0.3,1.1,0.4,1.8,0.4h3.1c0,0,0,0,0,0
			c2.1,0,3.8-1.7,3.8-3.8C191.5,66.6,191.4,66.6,191.4,66.5z M96.4,50.8h-0.6c0-0.1-0.1-0.2-0.1-0.3c0-0.1-0.1-0.1-0.1-0.2
			c-0.1,0-0.1-0.1-0.2-0.1c-0.1,0-0.1,0-0.2-0.1h0c0,0-0.1,0-0.1,0c-0.1,0-0.2,0-0.3,0h-0.4c-0.1,0-0.2,0-0.3,0.1
			c-0.1,0-0.2,0.1-0.2,0.2c-0.1,0.1-0.1,0.2-0.2,0.2c0,0.1-0.1,0.2-0.1,0.3v1v2.9h2.9v2.3h-2.8l0.2,6.9l-0.9,2.6h-2.2l0.2-9.5h-2.4
			v-2.3h2.4l0.1-3.4c0-0.6,0-1,0.1-1.4c0.1-0.4,0.1-0.6,0.2-0.9c0.1-0.1,0.1-0.2,0.2-0.3c0.1-0.1,0.2-0.2,0.3-0.3
			c0.1-0.1,0.2-0.2,0.4-0.3c0.2-0.1,0.3-0.1,0.6-0.2c0.1,0,0.2,0,0.3-0.1c0.1,0,0.3,0,0.4,0c0.1,0,0.3,0,0.4,0c0.1,0,0.3,0,0.4,0
			h0.2c0.2,0,0.5,0,0.8,0c0.3,0,0.6,0.1,0.9,0.3c0.2,0.1,0.3,0.2,0.4,0.2c0.1,0.1,0.2,0.2,0.3,0.3l0.1,0.1L96.4,50.8z M109.4,63.5
			c-0.1,0.4-0.3,0.7-0.5,1c-0.2,0.3-0.4,0.6-0.7,0.9c-1,1.1-2.3,1.7-3.9,1.7h-0.5c-0.8,0-1.6-0.1-2.2-0.4c-0.7-0.3-1.2-0.7-1.7-1.3
			c-0.2-0.3-0.5-0.6-0.7-0.9c-0.2-0.3-0.4-0.7-0.5-1c-0.3-0.8-0.4-1.6-0.4-2.5c0-0.5,0-0.9,0.1-1.4c0.1-0.4,0.2-0.9,0.3-1.3
			c0.2-0.4,0.3-0.7,0.5-1.1c0.2-0.3,0.4-0.7,0.7-1c1-1.2,2.4-1.8,4-1.8h0.1c0.8,0,1.6,0.2,2.3,0.5c0.7,0.3,1.3,0.7,1.8,1.3
			c0.3,0.3,0.5,0.6,0.7,1c0.2,0.3,0.4,0.7,0.5,1.1c0.2,0.4,0.3,0.8,0.4,1.3c0.1,0.4,0.1,0.9,0.1,1.4
			C109.8,61.9,109.7,62.7,109.4,63.5z M123,66.7h-3.1l0-0.3c0-0.9,0.1-1.7,0.1-2.4c0-0.7,0-1.3,0.1-1.8c0-0.5,0-0.9,0-1.2
			c0-0.3,0-0.6,0-0.8c0-0.2,0-0.4,0-0.5c0-0.1,0-0.2,0-0.3v-0.1c0-0.4,0-0.8,0-1c0-0.2-0.1-0.5-0.1-0.6c-0.1-0.1-0.1-0.3-0.2-0.4
			c-0.1-0.1-0.2-0.3-0.3-0.4c-0.1-0.1-0.3-0.2-0.5-0.3c-0.2-0.1-0.4-0.1-0.7-0.1c-0.1,0-0.2,0-0.3,0s-0.2,0.1-0.3,0.1
			c-0.1,0-0.2,0.1-0.3,0.2c-0.1,0.1-0.2,0.1-0.2,0.2c-0.1,0.1-0.2,0.1-0.3,0.2c-0.1,0.1-0.2,0.2-0.3,0.2c-0.1,0.1-0.2,0.2-0.3,0.3
			c-0.1,0.1-0.2,0.2-0.3,0.4c-0.1,0.2-0.2,0.3-0.3,0.5c-0.1,0.2-0.1,0.4-0.2,0.6c0,0.1-0.1,0.2-0.1,0.3c0,0.1,0,0.2,0,0.3
			c0,0.1,0,0.2,0,0.4s0,0.3,0,0.5c0,0.1,0,0.2,0,0.4c0,0.2,0,0.5,0,0.7c0,0.3,0,0.6,0,0.9c0,0.3,0,0.7,0,1c0,0.3,0,0.7,0,1
			c0,0.3,0,0.6,0,0.8c0,0.2,0,0.4,0,0.6c0,0.2,0,0.2,0,0.2l0,0.3h-3.1l0-0.3c0,0,0-0.1,0-0.3c0-0.2,0-0.5,0-0.9c0-0.4,0-0.8,0.1-1.3
			c0-0.5,0-1,0.1-1.5c0-0.5,0.1-1,0.1-1.5c0-0.5,0-1,0.1-1.4c0-0.4,0-0.8,0-1.2c0-0.3,0-0.6,0-0.7c0-0.2,0-0.4,0-0.7
			c0-0.3,0-0.5-0.1-0.8c0-0.3,0-0.5-0.1-0.6c0-0.2,0-0.3,0-0.3l0-0.3h2.6l0.1,1.3c0.1-0.1,0.2-0.2,0.3-0.4c0.1-0.1,0.2-0.2,0.3-0.3
			c0.1-0.1,0.2-0.2,0.3-0.3c0.1-0.1,0.2-0.2,0.4-0.2c0.3-0.2,0.7-0.3,1-0.4c0.4-0.1,0.7-0.1,1.1-0.1c0.8,0,1.6,0.2,2.2,0.5
			c0.6,0.3,1,0.8,1.4,1.4c0.2,0.3,0.3,0.7,0.4,1.1c0.1,0.4,0.1,1,0.1,1.7c0,0.1,0,0.4,0,0.7c0,0.3,0,0.6,0,1c0,0.4,0,0.8,0,1.2
			c0,0.4,0,0.8,0.1,1.2c0,0.4,0,0.8,0.1,1.2c0,0.4,0,0.7,0,1c0,0.3,0,0.5,0,0.7c0,0.2,0,0.3,0,0.3L123,66.7L123,66.7z M134.4,66.4
			c-0.1,0.1-0.2,0.1-0.3,0.2c-0.1,0-0.2,0.1-0.3,0.1c-0.1,0-0.2,0.1-0.3,0.1c-0.1,0-0.3,0.1-0.4,0.1c-0.1,0-0.3,0.1-0.4,0.1
			c-0.1,0-0.3,0.1-0.5,0.1c-0.2,0-0.4,0-0.6,0.1c-0.2,0-0.5,0-0.8,0c-0.5,0-1-0.1-1.4-0.2c-0.4-0.2-0.8-0.4-1-0.6
			c-0.2-0.2-0.4-0.5-0.5-0.8c-0.1-0.3-0.1-0.7-0.1-1.2l0.2-7.1H125v-2.3h2.9l0.3-5.1h1.3l1,1.4l-0.1,3.7h2.8l0.9,1.2v1.1h-3.7l0,6.3
			c0,0.5,0.1,0.7,0.2,0.8c0.1,0.1,0.2,0.1,0.3,0.1s0.3,0,0.4,0h0c0.2,0,0.4,0,0.7-0.1c0.2,0,0.5-0.1,0.7-0.2c0.1,0,0.2-0.1,0.3-0.1
			c0.1-0.1,0.2-0.1,0.3-0.2c0.1-0.1,0.2-0.1,0.3-0.2l0.8,2.6L134.4,66.4z M141.5,65.7c-0.1,0.2-0.2,0.5-0.4,0.6
			c-0.2,0.2-0.4,0.3-0.6,0.4c-0.2,0.1-0.5,0.2-0.8,0.2c-0.3,0-0.5-0.1-0.8-0.2c-0.2-0.1-0.5-0.2-0.6-0.4c-0.2-0.2-0.3-0.4-0.4-0.6
			c-0.1-0.2-0.2-0.5-0.2-0.8c0-0.3,0.1-0.5,0.2-0.8c0.1-0.2,0.2-0.5,0.4-0.6c0.2-0.2,0.4-0.3,0.6-0.4c0.2-0.1,0.5-0.2,0.8-0.2
			c0.3,0,0.5,0.1,0.8,0.2c0.2,0.1,0.4,0.2,0.6,0.4c0.2,0.2,0.3,0.4,0.4,0.6c0.1,0.2,0.2,0.5,0.2,0.8
			C141.7,65.2,141.6,65.5,141.5,65.7z M155,63.6c0,0.2,0,0.5-0.1,0.8c-0.1,0.3-0.2,0.5-0.4,0.8c-0.1,0.2-0.3,0.4-0.5,0.6
			c-0.2,0.2-0.3,0.4-0.5,0.5c-0.3,0.2-0.6,0.4-0.9,0.5S152,67,151.7,67c-0.3,0.1-0.6,0.1-0.9,0.1c-0.3,0-0.6,0-0.9,0
			c-0.8,0-1.6-0.1-2.3-0.4c-0.7-0.3-1.2-0.7-1.7-1.2c-0.4-0.6-0.8-1.2-1-2c-0.2-0.8-0.4-1.6-0.4-2.5c0-0.5,0-1,0.1-1.4
			s0.2-0.9,0.3-1.3c0.2-0.8,0.6-1.5,1.1-2c0.2-0.3,0.5-0.6,0.8-0.8c0.3-0.2,0.6-0.4,1-0.6c0.3-0.1,0.7-0.3,1.1-0.3
			c0.4-0.1,0.8-0.1,1.2-0.1c0.7,0,1.3,0.1,1.8,0.2c0.6,0.2,1,0.4,1.5,0.7c0.6,0.5,1,1.1,1.3,2l0.1,0.4h-2.7l-0.1-0.2
			c-0.1-0.1-0.1-0.2-0.1-0.4c0-0.1-0.1-0.2-0.2-0.3c-0.1-0.1-0.2-0.2-0.3-0.2c-0.1-0.1-0.2-0.1-0.4-0.2c-0.1-0.1-0.3-0.1-0.4-0.1
			c-0.2,0-0.4,0-0.6,0c-0.3,0-0.6,0-0.8,0.1s-0.5,0.2-0.7,0.4c-0.2,0.2-0.4,0.3-0.6,0.6c-0.2,0.2-0.3,0.5-0.4,0.7
			c-0.1,0.2-0.1,0.3-0.2,0.5c0,0.1-0.1,0.3-0.1,0.4c0,0.1,0,0.3,0,0.5c0,0.2,0,0.4,0,0.7c0,0.5,0,1,0.1,1.4c0.1,0.4,0.2,0.8,0.4,1.2
			l0,0c0.1,0.2,0.2,0.3,0.2,0.4c0.1,0.1,0.2,0.2,0.3,0.3c0.2,0.1,0.4,0.2,0.6,0.2c0.3,0,0.6,0.1,1,0.1h0.2c0.4,0,0.8,0,1,0
			c0.2,0,0.4-0.1,0.5-0.1c0.1-0.1,0.2-0.1,0.2-0.2c0.1,0,0.1-0.1,0.1-0.3l0-0.2h3L155,63.6L155,63.6z M168.3,63.5
			c-0.1,0.4-0.3,0.7-0.5,1c-0.2,0.3-0.4,0.6-0.7,0.9c-1,1.1-2.3,1.7-3.9,1.7h-0.5c-0.8,0-1.6-0.1-2.2-0.4c-0.7-0.3-1.2-0.7-1.7-1.3
			c-0.2-0.3-0.5-0.6-0.7-0.9c-0.2-0.3-0.4-0.7-0.5-1c-0.3-0.8-0.4-1.6-0.4-2.5c0-0.5,0-0.9,0.1-1.4c0.1-0.4,0.2-0.9,0.3-1.3
			c0.1-0.4,0.3-0.7,0.5-1.1c0.2-0.3,0.4-0.7,0.7-1c1-1.2,2.4-1.8,4-1.8h0.1c0.8,0,1.6,0.2,2.3,0.5c0.7,0.3,1.3,0.7,1.8,1.3
			c0.3,0.3,0.5,0.6,0.7,1s0.4,0.7,0.5,1.1c0.2,0.4,0.3,0.8,0.4,1.3c0.1,0.4,0.1,0.9,0.1,1.4C168.8,61.9,168.6,62.7,168.3,63.5z
			 M184.6,66.7l0.2-8.2c0-0.3-0.1-0.5-0.1-0.8s-0.2-0.4-0.4-0.6c-0.1-0.1-0.2-0.2-0.3-0.3c-0.1-0.1-0.2-0.2-0.3-0.2
			s-0.2-0.1-0.4-0.1c-0.1,0-0.3-0.1-0.4-0.1h0c-0.2,0-0.4,0-0.6,0.1c-0.2,0.1-0.3,0.1-0.4,0.2c-0.1,0.1-0.2,0.2-0.3,0.3
			c-0.1,0.1-0.1,0.1-0.2,0.2c-0.2,0.2-0.3,0.4-0.4,0.6c-0.1,0.2-0.1,0.4-0.1,0.6l0.2,8.2H178l0.2-8.2c0-0.4-0.1-0.8-0.3-1.2
			c-0.1-0.1-0.1-0.2-0.2-0.3c-0.1-0.1-0.2-0.2-0.3-0.3c-0.1-0.1-0.3-0.2-0.4-0.2c-0.2-0.1-0.4-0.1-0.6-0.1c-0.2,0-0.4,0-0.5,0.1
			c-0.1,0-0.3,0.1-0.4,0.2c-0.1,0.1-0.2,0.2-0.3,0.3c-0.1,0.1-0.2,0.2-0.3,0.4c-0.1,0.2-0.2,0.3-0.3,0.5c-0.1,0.2-0.1,0.4-0.1,0.6
			c0,0.1,0,0.3,0,0.4s0,0.3,0,0.4v1c0,0.1,0,0.2,0,0.5s0,0.5,0,0.8c0,0.3,0,0.6,0,1s0,0.7,0,1c0,0.4,0,0.7,0,1c0,0.3,0,0.6,0,0.9
			c0,0.3,0,0.5,0,0.6c0,0.2,0,0.2,0,0.2v0.3h-3.1l0.2-11.9h2.5v0.4c0.1-0.1,0.2-0.1,0.3-0.2c0.1-0.1,0.2-0.1,0.3-0.2h0
			c0.1,0,0.2-0.1,0.3-0.1c0.1-0.1,0.2-0.1,0.4-0.1c0.2,0,0.3-0.1,0.6-0.1c0.2,0,0.5,0,0.8,0c0.4,0,0.8,0,1.1,0.2
			c0.4,0.1,0.7,0.3,1,0.5c0.1,0.1,0.3,0.2,0.4,0.3s0.2,0.2,0.3,0.4c0.2-0.2,0.3-0.3,0.5-0.5c0.2-0.1,0.4-0.3,0.6-0.4
			c0.2-0.1,0.4-0.2,0.6-0.2c0.2-0.1,0.5-0.1,0.7-0.1c0.2,0,0.4,0,0.6-0.1c0.2,0,0.3,0,0.4,0h0c0.7,0,1.4,0.1,2,0.4
			c0.6,0.3,1.1,0.7,1.5,1.2c0.3,0.4,0.5,0.8,0.7,1.3c0.1,0.5,0.2,1,0.2,1.6l0.1,7.7L184.6,66.7L184.6,66.7z"/>
	</g>
	<g>
		<path d="M20.5,25c-0.1-0.4-0.2-0.8-0.3-1.1c-0.1-0.3-0.2-0.6-0.4-0.7c-0.5-0.8-1-1.4-1.7-1.8c-0.7-0.4-1.4-0.7-2.2-0.7
			c-0.1,0-0.2,0-0.4,0c-0.1,0-0.2,0-0.4,0.1c-0.8,0.1-1.5,0.3-2,0.7c-0.5,0.3-1,0.8-1.4,1.3c-0.2,0.3-0.4,0.7-0.4,1.2
			c-0.1,0.5-0.1,1,0,1.5c0,0.5,0.1,1,0.2,1.5c0.1,0.5,0.2,0.9,0.4,1.2c0.2,0.5,0.3,0.8,0.4,1.1c0.1,0.3,0.2,0.5,0.4,0.8
			c0.1,0.2,0.2,0.4,0.4,0.6c0.1,0.2,0.3,0.4,0.5,0.7c0.2,0.3,0.4,0.5,0.5,0.7c0.1,0.2,0.3,0.3,0.5,0.4c0.2,0.1,0.5,0.2,0.9,0.2
			c0.4,0,0.8,0.1,1.4,0.1c0.6,0,1.1-0.1,1.5-0.3c0.5-0.2,0.8-0.5,1.2-0.8c0.4-0.5,0.7-1,0.8-1.6c0.1-0.6,0.2-1.3,0.2-2.1
			c0-0.6,0-1.1-0.1-1.6C20.7,25.9,20.6,25.4,20.5,25z"/>
		<path d="M91.6,25.5c0.2,0,0.3-0.1,0.4-0.1c0.1-0.1,0.3-0.1,0.4-0.2s0.2-0.2,0.3-0.3c0.3-0.5,0.2-1.1-0.2-2c-0.2-0.4-0.4-0.8-0.7-1
			c-0.3-0.3-0.6-0.5-1-0.7s-0.7-0.3-1-0.3c-0.4-0.1-0.7-0.1-1-0.1c-0.4,0-0.7,0-1.1,0.1c-0.3,0.1-0.6,0.2-0.9,0.4
			c-0.3,0.2-0.5,0.4-0.8,0.6c-0.2,0.2-0.5,0.4-0.7,0.7c-0.4,0.4-0.7,0.9-0.9,1.4c-0.2,0.6-0.4,1.2-0.4,1.9l7.2-0.3
			C91.3,25.5,91.4,25.5,91.6,25.5z"/>
		<path d="M121.1,17.5h-16.3c-1.3,0-2.4,1.1-2.4,2.4v16.3c0,1.3,1.1,2.4,2.4,2.4h16.3c1.3,0,2.4-1.1,2.4-2.4V19.9
			C123.5,18.6,122.4,17.5,121.1,17.5z M122,30.6h-6.3V37h-5.3v-6.3H104v-5.3h6.3V19h5.3v6.3h6.3C122,25.3,122,30.6,122,30.6z"/>
		<path d="M158.9,28.8c0.8-1.3,1.2-2.9,1-4.6c0-0.1,0-0.3,0-0.4c-0.2-1-0.4-1.9-0.8-2.7c-0.3-0.6-0.6-1.2-0.9-1.8
			c-0.3-0.5-0.6-1-1-1.5c-0.3-0.4-0.7-0.8-1.1-1.1c-0.4-0.3-0.8-0.7-1.2-0.9c-0.4-0.3-0.8-0.5-1.2-0.7c-0.6-0.3-1.3-0.6-2.1-0.8
			c-1-0.3-2.2-0.5-3.5-0.5c-0.9,0-1.8,0.1-2.7,0.3c-0.9,0.2-1.8,0.5-2.6,1c-1.5,0.8-2.8,1.8-4,3.1c0,0,0,0,0,0
			c-0.1,0.1-0.2,0.2-0.3,0.3l0-0.5c0-1-0.4-1.9-1.1-2.5c0.6-0.6,1-1.3,1.3-2c0.3-0.8,0.5-1.7,0.5-2.6c0-0.9-0.2-1.7-0.5-2.5
			c-0.3-0.8-0.8-1.5-1.4-2.1c-0.6-0.6-1.3-1.1-2.1-1.4c-0.8-0.4-1.7-0.5-2.6-0.5c-0.9,0-1.8,0.2-2.6,0.5c-0.8,0.3-1.5,0.8-2.1,1.4
			c-0.6,0.6-1,1.3-1.4,2.1c-0.4,0.8-0.5,1.7-0.5,2.6c0,0.6,0.1,1.2,0.3,1.8c-1.5-1.1-3.3-1.7-5.2-1.7h-16.3c-3.7,0-6.9,2.3-8.2,5.6
			c-0.4-0.3-0.8-0.6-1.1-0.9c-0.4-0.3-0.8-0.5-1.2-0.7c-0.6-0.3-1.3-0.6-2.1-0.8c-1-0.3-2.2-0.5-3.5-0.5c-0.9,0-1.8,0.1-2.7,0.3
			c-0.9,0.2-1.8,0.5-2.6,1c-1.5,0.8-2.8,1.8-4,3.1c0,0,0,0,0,0c-0.6,0.7-1.1,1.4-1.5,2.2c-0.1,0.1-0.1,0.3-0.2,0.4
			c0-0.2,0-0.5,0-0.7c0-0.6,0-1.2,0-1.6c0-0.7,0.1-1.4,0.1-2.2c0-0.8,0-1.6,0-2.4c0-0.8,0-1.6,0-2.3c0-0.7,0-1.4,0-1.9
			c0-0.6,0-1.1,0-1.4c0-0.3,0-0.4,0-0.5V7.3c0-2.1-1.7-3.8-3.8-3.8h-4.1c-2.1,0-3.8,1.7-3.8,3.8l0,0.9c0,0.4,0,0.8,0,1.4
			c0,0.6,0,1.2,0,1.9c0,0.7,0,1.5,0,2.3c0,0.8,0,1.5,0,2.3c0,0.4,0,0.7,0,1.1c-0.2-0.2-0.3-0.4-0.5-0.6c-1.1-1.1-2.4-1.8-3.9-2.3
			c-1.3-0.4-2.8-0.6-4.5-0.6c-0.7,0-1.4,0-2,0.1c-0.7,0.1-1.4,0.2-2,0.4c-0.7,0.2-1.3,0.5-1.9,0.8c-0.5,0.3-1,0.6-1.4,1c0,0,0,0,0,0
			c-0.7-1-1.9-1.6-3.1-1.6h-4.2c-1.6,0-3,1-3.6,2.5l-0.5,1.5l-1.1-2c-0.7-1.2-1.9-2-3.3-2h-4.2c-0.3,0-0.6,0-0.9,0.1l0.4-7
			c0.1-1-0.3-2-1-2.8c-0.7-0.8-1.7-1.2-2.7-1.2h-4.1c-2,0-3.6,1.5-3.8,3.5l-0.5,6.8c-0.5-0.1-1-0.1-1.5-0.1c-1.8,0-3.5,0.3-5.1,1
			c-1.6,0.7-3,1.7-4.2,3c0,0,0,0,0,0.1c-0.3,0.3-0.5,0.6-0.8,0.9c-0.3,0.4-0.6,0.8-0.8,1.3c-0.2,0.4-0.4,0.9-0.6,1.3
			c-0.2,0.5-0.3,1-0.4,1.6c-0.1,0.9-0.2,1.8-0.1,2.8c0.1,0.9,0.2,1.8,0.4,2.8c0.2,0.9,0.4,1.8,0.7,2.6C5,32,5.3,32.7,5.6,33.5
			c0.3,0.7,0.7,1.4,1,2c0.4,0.6,0.7,1.2,1,1.6c0.1,0.1,0.2,0.2,0.3,0.3c0.2,0.3,0.4,0.6,0.7,0.8c0.5,0.6,1,1.1,1.7,1.5
			c0.6,0.5,1.4,0.8,2.2,1.1c0.9,0.3,1.8,0.4,2.9,0.4h0c0.9,0,1.8-0.1,2.6-0.3c0.6-0.1,1.1-0.3,1.7-0.5c0.4,0.1,0.7,0.2,1.1,0.2h5.4
			C26.1,41,26,41.3,26,41.6l-0.6,4c-0.2,1.2,0.3,2.5,1.2,3.3l0.2,0.2c0,0,0,0,0,0c0.8,0.7,1.7,1.2,2.7,1.6c1,0.4,2.1,0.6,3.2,0.6
			c0.7,0,1.3,0,1.8-0.1c0.7-0.1,1.4-0.2,2-0.4c0.7-0.2,1.4-0.6,2-1c0.5-0.4,1-0.8,1.4-1.4c0,0,0-0.1,0.1-0.1
			c0.3-0.4,0.6-0.9,0.9-1.4c0.2-0.4,0.4-0.8,0.6-1.3c0.2-0.5,0.4-1,0.6-1.6c0.2-0.5,0.4-1.1,0.6-1.8c0.1-0.4,0.3-0.9,0.4-1.3
			c0.1-0.4,0.3-0.9,0.5-1.4c0,0,0,0,0-0.1c0.1-0.2,0.2-0.5,0.3-1c0.2-0.5,0.4-1.1,0.6-1.7c0.2-0.7,0.5-1.5,0.8-2.3
			c0.2-0.6,0.4-1.3,0.6-1.9c0.1,0.4,0.1,0.7,0.2,1c0.1,0.6,0.3,1.1,0.5,1.6c0.2,0.5,0.5,1,0.8,1.5c0.3,0.4,0.6,0.8,0.9,1.2
			c0,0,0,0,0,0c1.1,1.2,2.4,2.1,4,2.7c1.4,0.5,3,0.7,4.8,0.7c0.8,0,1.7-0.1,2.5-0.2c0.8-0.1,1.6-0.3,2.4-0.6c0.8-0.3,1.5-0.6,2.1-1
			c0.7-0.4,1.3-0.9,1.9-1.4c0.2-0.2,0.4-0.4,0.6-0.6c0.2,0.3,0.3,0.5,0.5,0.8c0,0,0.1,0.1,0.1,0.1c0.6,0.7,1.3,1.2,2.2,1.6
			c0.8,0.4,1.7,0.6,2.6,0.6h6.1c0,0,0,0,0,0c1.3,0,2.4-0.6,3.1-1.6c0.8,0.6,1.6,1,2.4,1.4c1.4,0.6,3,0.9,4.8,0.9c0.5,0,1,0,1.6,0
			c0.7,0,1.3-0.1,1.9-0.1c0.3,0,0.6-0.1,0.9-0.2c0.4-0.1,0.9-0.2,1.3-0.4c0.4-0.2,0.9-0.3,1.4-0.6c0.5-0.2,1-0.5,1.4-0.9
			c1.3,3.3,4.5,5.7,8.2,5.7h16.3c3.3,0,6.2-1.8,7.7-4.5c0.5,0.2,0.9,0.3,1.4,0.3h4.9c0,0,0,0,0,0c1.8,0,3.4-1.3,3.7-3
			c0,0,0,0,0.1,0.1c1.1,1.2,2.5,2.2,4,2.8c1.4,0.6,3,0.9,4.8,0.9c0.5,0,1,0,1.6,0c0.7,0,1.3-0.1,1.9-0.1c0.3,0,0.6-0.1,0.9-0.2
			c0.4-0.1,0.9-0.2,1.3-0.4c0.4-0.2,0.9-0.3,1.4-0.6c0.5-0.3,1-0.6,1.5-0.9c0.3-0.2,0.6-0.5,1-0.8c0.5-0.4,0.9-0.9,1.4-1.5
			c0,0,0,0,0,0c0.5-0.7,0.9-1.5,1.2-2.4c0.2-0.8,0.4-1.6,0.4-2.4c0-0.1,0-0.1,0-0.2v-0.4C160.1,30.5,159.7,29.5,158.9,28.8z
			 M20.9,37v-1.8c-0.3,0.4-0.6,0.7-1,1c-0.3,0.3-0.7,0.5-1.1,0.7c-0.5,0.3-1.1,0.5-1.6,0.6c-0.5,0.1-1.1,0.2-1.8,0.2h0
			c-0.7,0-1.2-0.1-1.7-0.2c-0.5-0.2-0.9-0.4-1.2-0.6c-0.4-0.2-0.7-0.5-0.9-0.8c-0.3-0.3-0.5-0.6-0.7-0.9L10.7,35
			c-0.2-0.4-0.5-0.8-0.8-1.3c-0.3-0.5-0.6-1.1-0.9-1.7c-0.3-0.6-0.5-1.3-0.8-2c-0.2-0.7-0.4-1.4-0.6-2.2c-0.2-0.8-0.3-1.6-0.3-2.3
			c0-0.7,0-1.3,0.1-1.9c0.1-0.3,0.1-0.6,0.2-0.9s0.2-0.5,0.4-0.8c0.1-0.3,0.3-0.5,0.5-0.8c0.2-0.2,0.4-0.5,0.6-0.8
			c0.8-0.9,1.7-1.6,2.8-2.1c1.1-0.5,2.3-0.7,3.6-0.7c0.7,0,1.4,0.1,2,0.2c0.6,0.2,1.2,0.4,1.7,0.7c0.2,0.1,0.4,0.2,0.6,0.4
			c0.2,0.1,0.4,0.3,0.7,0.6l0.8-12.2h4.1l-0.9,15.1c0,0.1,0,0.3,0,0.6s0,0.8,0,1.3c0,0.5,0,1.1,0,1.7c0,0.6,0,1.2,0,1.8
			c0,0.6,0,1.2,0,1.7c0,0.5,0,0.9,0.1,1.2c0,0.3,0.1,0.7,0.2,1.1c0.1,0.4,0.2,0.8,0.3,1.2c0.1,0.4,0.2,0.8,0.3,1.2
			c0.1,0.4,0.2,0.8,0.3,1.1c0.1,0.3,0.2,0.6,0.2,0.8c0.1,0.2,0.1,0.3,0.1,0.3l0.2,0.6L20.9,37L20.9,37z M46.4,18.7
			c0,0-0.1,0.2-0.2,0.5c-0.1,0.3-0.3,0.8-0.5,1.4s-0.4,1.3-0.7,2c-0.3,0.8-0.5,1.6-0.8,2.5c-0.3,0.9-0.6,1.8-0.9,2.7
			c-0.3,0.9-0.6,1.9-0.9,2.8c-0.3,0.9-0.6,1.8-0.9,2.6c-0.3,0.8-0.5,1.6-0.8,2.3c-0.2,0.7-0.4,1.3-0.6,1.8c-0.2,0.5-0.3,0.8-0.3,1
			c-0.2,0.5-0.3,1-0.5,1.5c-0.1,0.4-0.3,0.9-0.4,1.3c-0.2,0.7-0.4,1.3-0.6,1.8s-0.3,1-0.5,1.4c-0.2,0.4-0.3,0.7-0.4,1
			c-0.1,0.3-0.3,0.5-0.5,0.7c-0.3,0.3-0.6,0.6-0.8,0.8c-0.3,0.2-0.6,0.4-0.9,0.5c-0.3,0.1-0.7,0.2-1.1,0.2c-0.4,0-0.9,0.1-1.5,0.1
			c-0.7,0-1.3-0.1-1.8-0.3c-0.6-0.2-1.1-0.5-1.5-0.9l-0.2-0.2l0.6-4l0.6,0.6c0.1,0.1,0.2,0.1,0.3,0.2c0.1,0,0.2,0.1,0.4,0.1
			c0.2,0,0.4,0.1,0.7,0.1s0.6,0,1.1,0c0.3,0,0.5,0,0.6,0c0.2,0,0.3-0.1,0.4-0.2c0.1-0.1,0.2-0.3,0.3-0.4c0.1-0.1,0.1-0.3,0.2-0.5v0
			c0.1-0.2,0.2-0.5,0.3-1c0.2-0.5,0.3-1,0.5-1.6c0.2-0.6,0.4-1.3,0.7-2c0.2-0.7,0.5-1.3,0.7-2c0.2-0.6,0.4-1.2,0.5-1.6
			c0.2-0.5,0.3-0.8,0.3-1l-7.6-14.7h4.2l5.1,9.6l3.3-9.6h4.2L46.4,18.7z M65.2,31.3c-0.1,0.9-0.2,1.6-0.5,2.3
			c-0.3,0.7-0.8,1.3-1.4,1.9c-0.3,0.3-0.7,0.6-1.2,0.9c-0.4,0.3-0.9,0.5-1.5,0.7c-0.6,0.2-1.1,0.3-1.7,0.4c-0.6,0.1-1.2,0.2-1.8,0.2
			c-1.4,0-2.5-0.2-3.5-0.5c-1-0.3-1.8-0.9-2.4-1.6c-0.3-0.3-0.5-0.6-0.7-0.9c-0.2-0.3-0.3-0.6-0.5-0.9c-0.1-0.3-0.2-0.6-0.3-1
			c-0.1-0.4-0.1-0.8-0.2-1.2h4.7c0,0.3,0,0.5,0.1,0.6c0,0.1,0.1,0.2,0.2,0.3c0.1,0,0.1,0.1,0.3,0.1c0.1,0,0.3,0.1,0.5,0.1
			c0.2,0,0.5,0.1,0.8,0.1c0.3,0,0.7,0,1.2,0c0.4,0,0.7,0,0.9,0c0.3,0,0.5,0,0.7-0.1c0.2,0,0.4-0.1,0.5-0.2s0.3-0.2,0.5-0.3
			c0.2-0.1,0.3-0.2,0.4-0.3c0.1-0.1,0.2-0.2,0.3-0.3s0.1-0.2,0.1-0.3s0-0.3,0-0.5c0-0.3-0.2-0.6-0.4-0.9c-0.3-0.3-0.7-0.5-1.2-0.7
			c-0.1,0-0.3-0.1-0.4-0.1c-0.2-0.1-0.4-0.1-0.7-0.2c-0.2-0.1-0.5-0.1-0.7-0.2c-0.3-0.1-0.5-0.1-0.7-0.2c-0.2-0.1-0.4-0.1-0.5-0.2
			c-0.1,0-0.2-0.1-0.2-0.1c-0.6-0.2-1.2-0.4-1.9-0.6c-0.6-0.3-1.1-0.5-1.5-0.8c-0.7-0.4-1.2-1-1.5-1.5c-0.3-0.6-0.5-1.3-0.6-2.1
			c0-0.4,0-0.8,0-1.2c0.1-0.4,0.1-0.7,0.3-1c0.1-0.3,0.3-0.6,0.6-0.9c0.2-0.3,0.5-0.6,0.9-0.9c0.3-0.3,0.7-0.5,1-0.7
			c0.4-0.2,0.7-0.4,1.2-0.5c0.4-0.1,0.9-0.2,1.3-0.3c0.5-0.1,1-0.1,1.6-0.1c1.4,0,2.6,0.1,3.5,0.4c0.9,0.3,1.7,0.7,2.3,1.3
			c0.5,0.5,0.8,1,1,1.5c0.2,0.6,0.4,1.1,0.4,1.7v0.5h-4v-0.5c0-0.2-0.1-0.3-0.1-0.5c-0.1-0.1-0.2-0.3-0.3-0.5
			c-0.1-0.1-0.2-0.2-0.3-0.3c-0.1-0.1-0.3-0.2-0.5-0.3c-0.2-0.1-0.5-0.1-0.8-0.2c-0.3-0.1-0.7-0.1-1.2-0.1c-0.6,0-1.1,0-1.4,0.1
			c-0.3,0.1-0.6,0.2-0.9,0.4c-0.2,0.2-0.4,0.4-0.6,0.5S54,22.3,54,22.7c0,0.3,0.1,0.5,0.2,0.7c0.1,0.2,0.4,0.4,0.7,0.6
			c0.2,0.2,0.5,0.3,0.8,0.4c0.3,0.1,0.6,0.2,1,0.3l1.9,0.5c0.6,0.2,1.2,0.3,1.7,0.4c0.5,0.1,0.9,0.3,1.3,0.4c0.4,0.1,0.7,0.3,1,0.4
			s0.5,0.3,0.8,0.5C64.6,27.9,65.2,29.3,65.2,31.3z M71.8,37c-0.4,0-0.7-0.1-1-0.2c-0.3-0.2-0.6-0.4-0.8-0.6
			c-0.2-0.2-0.3-0.5-0.4-0.7c-0.1-0.2-0.2-0.6-0.2-0.9v-1.3c0,0,0-0.2,0-0.5s0-0.7,0-1.2c0-0.5,0-1.2,0-1.9c0-0.7,0-1.5,0-2.3
			c0-0.8,0-1.6,0.1-2.5c0-0.8,0-1.7,0.1-2.4c0-0.8,0-1.5,0.1-2.2s0-1.3,0.1-1.8c0-0.6,0-1.3,0-2.1c0-0.8,0-1.5,0-2.3
			c0-0.8,0-1.5,0-2.3c0-0.7,0-1.4,0-2c0-0.6,0-1,0-1.4s0-0.5,0-0.5V7.3H74v0.4c0,0,0,0.2,0,0.5c0,0.3,0,0.8,0,1.4s0,1.2,0,2
			c0,0.7,0,1.5,0,2.3c0,0.8,0,1.6,0,2.3c0,0.8,0,1.5-0.1,2.1c0,0.5,0,1.1,0,1.7c0,0.7,0,1.4,0,2.1c0,0.7,0,1.5,0,2.3s0,1.5,0,2.3
			c0,1.7,0,3.6,0,5.5c0,0.2,0,0.3,0,0.3c0,0.1,0,0.1,0.1,0.2c0.1,0.1,0.2,0.1,0.4,0.1h2l1.6,4.1L71.8,37L71.8,37z M96.9,32
			c0,0.5-0.1,1-0.2,1.4c-0.1,0.5-0.4,0.9-0.6,1.3c-0.3,0.4-0.5,0.6-0.8,0.9c-0.3,0.2-0.5,0.5-0.8,0.6c-0.3,0.2-0.6,0.4-0.9,0.6
			c-0.3,0.2-0.6,0.3-0.9,0.4c-0.3,0.1-0.6,0.2-0.8,0.2c-0.3,0.1-0.5,0.1-0.7,0.1c-0.4,0.1-0.9,0.1-1.4,0.1c-0.5,0-1,0-1.5,0
			c-1.2,0-2.4-0.2-3.4-0.6c-1-0.4-1.9-1-2.6-1.9c-1.7-1.8-2.6-4.1-2.6-7c0-1.5,0.2-2.9,0.7-4.2c0.2-0.6,0.5-1.2,0.8-1.8
			c0.3-0.6,0.7-1.1,1.1-1.6c0.8-1,1.8-1.7,2.9-2.3c0.6-0.3,1.1-0.5,1.8-0.6c0.6-0.1,1.2-0.2,1.9-0.2c1,0,1.8,0.1,2.4,0.3
			c0.7,0.2,1.2,0.4,1.6,0.6c0.2,0.1,0.5,0.3,0.8,0.4c0.3,0.2,0.5,0.4,0.8,0.6c0.3,0.2,0.5,0.5,0.7,0.8c0.2,0.3,0.4,0.6,0.6,0.9
			c0.3,0.5,0.5,1,0.7,1.5c0.2,0.5,0.4,1.1,0.5,1.8v0c0.1,1.1-0.2,2.1-0.8,2.9c-0.4,0.5-1,0.9-1.8,1.1c-0.7,0.3-1.6,0.4-2.7,0.4
			l-7.4,0.4c0.1,0.4,0.1,0.7,0.3,1.1c0.1,0.4,0.3,0.7,0.6,1c0.2,0.2,0.3,0.4,0.5,0.5c0.2,0.2,0.4,0.3,0.6,0.4s0.5,0.2,0.8,0.3
			c0.3,0.1,0.7,0.1,1.2,0.1h0.1c0.4,0,0.7,0,1.1,0c0.4,0,0.7,0,1,0c0.3,0,0.6,0,0.8-0.1c0.2,0,0.4-0.1,0.6-0.1
			c0.1-0.1,0.3-0.1,0.3-0.2c0.1-0.1,0.2-0.2,0.2-0.5l0-0.4h4.8L96.9,32L96.9,32z M126.2,36.1c0,2.8-2.3,5-5,5h-16.3
			c-2.8,0-5-2.3-5-5V19.9c0-2.8,2.3-5,5-5h16.3c2.8,0,5,2.3,5,5V36.1z M130.2,37l0.4-18.8h4.1l0.4,18.8H130.2z M135.3,12
			c-0.1,0.3-0.3,0.6-0.6,0.9c-0.3,0.3-0.6,0.5-0.9,0.6s-0.7,0.2-1.1,0.2c-0.4,0-0.8-0.1-1.1-0.2c-0.3-0.1-0.6-0.3-0.9-0.6
			c-0.3-0.3-0.5-0.6-0.6-0.9s-0.2-0.7-0.2-1.1c0-0.4,0.1-0.7,0.2-1.1c0.1-0.3,0.4-0.7,0.6-0.9c0.3-0.3,0.6-0.5,0.9-0.6
			c0.3-0.1,0.7-0.2,1.1-0.2c0.4,0,0.8,0.1,1.1,0.2c0.3,0.2,0.6,0.4,0.9,0.6c0.3,0.3,0.5,0.6,0.6,0.9c0.1,0.3,0.2,0.7,0.2,1.1
			C135.5,11.3,135.4,11.7,135.3,12z M156.4,32c0,0.5-0.1,1-0.2,1.4c-0.1,0.5-0.4,0.9-0.6,1.3c-0.3,0.4-0.5,0.6-0.8,0.9
			c-0.3,0.2-0.5,0.5-0.8,0.6c-0.3,0.2-0.6,0.4-0.9,0.6c-0.3,0.2-0.6,0.3-0.9,0.4c-0.3,0.1-0.6,0.2-0.8,0.2c-0.3,0.1-0.5,0.1-0.7,0.1
			c-0.4,0.1-0.9,0.1-1.4,0.1c-0.5,0-1,0-1.5,0c-1.2,0-2.4-0.2-3.4-0.6c-1-0.4-1.9-1-2.6-1.9c-1.7-1.8-2.6-4.1-2.6-7
			c0-1.5,0.2-2.9,0.7-4.2c0.2-0.6,0.5-1.2,0.8-1.8c0.3-0.6,0.7-1.1,1.1-1.6c0.8-1,1.8-1.7,2.9-2.3c0.6-0.3,1.1-0.5,1.8-0.6
			c0.6-0.1,1.2-0.2,1.9-0.2c0.9,0,1.8,0.1,2.4,0.3c0.6,0.2,1.2,0.4,1.6,0.6c0.2,0.1,0.5,0.3,0.8,0.4c0.3,0.2,0.5,0.4,0.8,0.6
			c0.3,0.2,0.5,0.5,0.7,0.8c0.2,0.3,0.4,0.6,0.6,0.9c0.3,0.5,0.5,1,0.7,1.5c0.2,0.5,0.4,1.1,0.5,1.8v0c0.1,1.1-0.1,2.1-0.8,2.9
			c-0.4,0.5-1,0.9-1.8,1.1c-0.7,0.3-1.6,0.4-2.6,0.4l-7.4,0.4c0.1,0.4,0.1,0.7,0.3,1.1c0.1,0.4,0.3,0.7,0.6,1
			c0.2,0.2,0.3,0.4,0.5,0.5c0.2,0.2,0.4,0.3,0.6,0.4c0.2,0.1,0.5,0.2,0.8,0.3c0.3,0.1,0.7,0.1,1.2,0.1h0.1c0.4,0,0.7,0,1.1,0
			c0.4,0,0.7,0,1,0c0.3,0,0.6,0,0.8-0.1c0.2,0,0.4-0.1,0.6-0.1c0.1-0.1,0.2-0.1,0.3-0.2c0.1-0.1,0.2-0.2,0.2-0.5l0-0.4h4.8L156.4,32
			L156.4,32z"/>
		<path d="M151.1,25.5c0.2,0,0.3-0.1,0.4-0.1s0.3-0.1,0.4-0.2c0.1-0.1,0.2-0.2,0.3-0.3c0.3-0.5,0.2-1.1-0.2-2
			c-0.2-0.4-0.4-0.8-0.7-1c-0.3-0.3-0.6-0.5-1-0.7s-0.7-0.3-1-0.3c-0.4-0.1-0.7-0.1-1-0.1c-0.4,0-0.7,0-1.1,0.1
			c-0.3,0.1-0.6,0.2-0.9,0.4c-0.3,0.2-0.5,0.4-0.8,0.6c-0.2,0.2-0.5,0.4-0.7,0.7c-0.4,0.4-0.7,0.9-0.9,1.4c-0.2,0.6-0.4,1.2-0.4,1.9
			l7.2-0.3C150.8,25.5,150.9,25.5,151.1,25.5z"/>
	</g>
</g>
</svg>
