<?xml version="1.0" encoding="utf-8"?>
<!DOCTYPE svg PUBLIC "-//W3C//DTD SVG 1.1//EN" "http://www.w3.org/Graphics/SVG/1.1/DTD/svg11.dtd">
<svg id="KeepCalling" xmlns="http://www.w3.org/2000/svg" viewBox="0 0 216 40">
    <defs>
        <style>
        #logotype {
            fill: #13408c;
        }

        #logomark {
            fill: #d30102;
        }
        </style>
    </defs>
    <title>KeepCalling</title>
    <g id="logotype">
        <g id="Calling">
            <path d="M127.79,8.13v7.26c-5-5.58-12.08-2.68-12.08,4.13,0,6.23,6.93,9.61,12.08,3.85v7.28C118.42,35.18,109,29.31,109,19.39S118.46,3.62,127.79,8.13Z" />
            <path d="M148.56,14.74V31.57H143.1V28.84A6.8,6.8,0,0,1,137,32.22c-4.92,0-7.42-4-7.42-9s2.67-9,7.81-9a6,6,0,0,1,5.64,3.3V14.74Zm-5.23,8.4c0-2.54-1.41-4.27-3.93-4.27s-3.91,1.74-3.91,4.27,1.37,4.23,3.91,4.23S143.33,25.8,143.33,23.14Z" />
            <path d="M151.05,31.57V5.74h6V31.57Z" />
            <path d="M159.5,31.57V5.74h6V31.57Z" />
            <path d="M168,9.49a3,3,0,0,1,3-2.95,2.91,2.91,0,0,1,3,3,3,3,0,1,1-6,0Z" />
            <path d="M168,31.57V14.74h6V31.57Z" />
            <path d="M176.42,31.57V14.74h5.44v3.42c1.41-2.44,3.39-4,6.28-4,7,0,6.42,5.9,6.42,7.75v9.63h-6v-9c0-2.24-.55-3.84-2.78-3.84-3,0-3.56,2.75-3.56,5.79v7.07Z" />
            <path d="M215.33,14.74v16.8c0,5.69-3.86,7.46-9.54,7.46-4.23,0-8.35-1.4-8.55-5.58h6.16c.21,1.25,1.57,1.66,2.84,1.66,3.85,0,3.19-2.59,3.38-6.34a6.27,6.27,0,0,1-5.85,3.13c-4.84,0-7.39-3.92-7.39-8.83,0-5.17,2.82-8.83,7.81-8.83a6.08,6.08,0,0,1,5.64,3.23v-2.7ZM210.1,23.1c0-2.59-1.46-4.16-3.93-4.16s-4,1.57-4,4.16,1.43,4.17,4,4.17S210.1,25.73,210.1,23.1Z" />
        </g>
        <g id="Keep">
            <path d="M67.9,30.3c-3.37,0-5-2.74-5.07-6.13H74.61c0-.1.44-8-6.75-8-3.59,0-7.31,2.66-7.31,8.07,0,4,2.39,7.93,7.35,7.93A7,7,0,0,0,74.61,28l-1.88-1C71.72,29,70.2,30.3,67.9,30.3Zm-.34-12.14a4.23,4.23,0,0,1,4.61,4.26H63A4.46,4.46,0,0,1,67.56,18.16Z" />
            <path d="M91.68,39V16.79h2v2.77A5.85,5.85,0,0,1,99,16.24c4.46,0,7,3.51,7,8s-2.4,8-6.85,8a5.82,5.82,0,0,1-5.4-3.38V39Zm12-14.73c0-3.42-1.55-6.15-4.93-6.15s-5.07,2.54-5.07,6S95.57,30.3,99,30.3,103.7,27.63,103.7,24.27Z" />
            <path d="M83.43,30.3c-2.69,0-4.94-1.88-5.06-6.13H90.15c0-5.47-2.93-8-6.78-8-4.59,0-7.22,3.56-7.22,8.1s2.79,7.88,7.28,7.88c3.57,0,5.11-1.54,6.72-4.17l-1.89-1C87.25,29,85.73,30.3,83.43,30.3ZM83.1,18.16a4.23,4.23,0,0,1,4.61,4.26H78.5A4.47,4.47,0,0,1,83.1,18.16Z" />
            <path d="M43.87,31.56V7.17h2.22V18.6L57.15,7.17h2.91L48.46,18.83,60.61,31.56H57.38L46.09,19.18V31.56Z" />
        </g>
    </g>
    <g id="logomark">
        <path d="M18.86,1A17.79,17.79,0,0,0,9.08,3.91V17.16L14.33,12h5l-7,6.75,3.59,4.45c2.49-5.85,9.14-8.31,15.6-5.19v6.39h0C27.07,19.45,20.88,22,20.88,28c0,3.41,2.3,6,5.66,6C31,34,36.72,26.76,36.72,18.81A17.84,17.84,0,0,0,18.86,1" />
        <path d="M15,28h0L9.68,21.26l-.6.59V28H5.36V7.16A17.66,17.66,0,0,0,1,18.81,17.84,17.84,0,0,0,18.84,36.62,11.05,11.05,0,0,1,15,28Z" />
    </g>
</svg>