<?xml version="1.0" encoding="utf-8"?>
<!-- Generator: Adobe Illustrator 17.0.0, SVG Export Plug-In . SVG Version: 6.00 Build 0)  -->
<!DOCTYPE svg PUBLIC "-//W3C//DTD SVG 1.1//EN" "http://www.w3.org/Graphics/SVG/1.1/DTD/svg11.dtd">
<svg version="1.1" id="Layer_1" xmlns="http://www.w3.org/2000/svg" xmlns:xlink="http://www.w3.org/1999/xlink" x="0px" y="0px"
	 width="624px" height="165.333px" viewBox="0 0 624 165.333" enable-background="new 0 0 624 165.333" xml:space="preserve">
<rect x="0" y="0" display="none" width="624" height="165.333"/>
<path fill="#FEFFFF" d="M502.02,85.201c0,21.064-17.076,38.14-38.14,38.14c-21.064,0-38.14-17.076-38.14-38.14
	c0-21.064,17.076-38.14,38.14-38.14C484.944,47.061,502.02,64.137,502.02,85.201 M472.001,72.95
	c-4.336,2.775-8.741,5.47-12.998,8.382c-1.592,1.089-2.923,2.714-2.33,4.921c0.591,2.197,2.463,2.728,4.456,3.089
	c3.717,0.673,7.455,1.295,11.111,2.224c2.61,0.663,2.962,2.199,1.242,4.285c-0.703,0.853-1.525,1.639-2.4,2.316
	c-1.93,1.495-9.286,5.579-11.397,7.125c0.565,1.059-0.647,3.473,0.22,5.099c3.437-2.992,14.039-9.499,16.835-12.59
	c3.352-3.706,2.38-7.78-2.186-9.647c-2.973-1.215-6.27-1.648-9.431-2.392c-1.223-0.288-2.471-0.47-3.708-0.699
	c-0.024-0.221-0.049-0.442-0.073-0.663c0.656-0.548,1.25-1.205,1.98-1.625c2.637-1.515,5.321-2.946,7.984-4.415
	C474.261,76.729,474.315,76.448,472.001,72.95 M446.86,70.72c3.434-0.317,6.746-0.703,10.068-0.912
	c5.578-0.352,11.162-0.44,16.482,1.664c3.27,1.293,4.262,3.62,3.193,6.953c-0.956,2.98-0.956,2.98,2.357,4.134
	c0.472-1.312,1.038-2.604,1.401-3.95c1.129-4.178-0.249-7.707-4.062-9.828c-1.717-0.955-3.66-1.634-5.585-2.068
	c-6.99-1.574-14.015-0.866-21.027-0.037C446.215,67.086,446.215,67.079,446.86,70.72 M441.628,100.464
	c7.05-0.946,14.085-1.498,19.904-6.558c-0.96-0.842-1.815-1.592-2.604-2.285c-4.547,3.487-9.755,4.28-14.969,4.989
	C441.106,96.998,440.917,97.166,441.628,100.464 M480.855,69.557c2.651,0.07,5.763-2.952,5.622-5.563
	c-0.078-1.451-0.929-2.284-2.445-2.279c-2.456,0.007-5.079,2.194-5.553,4.611C478.129,68.109,479.161,69.513,480.855,69.557"/>
<path fill="#FDFDFE" d="M50.58,63.021c0,2.613,1.307,4.965,3.397,7.577c5.617,6.794,11.365,12.933,11.365,22.47
	c0,15.676-14.37,27.824-30.177,27.824c-9.013,0-19.333-5.878-19.333-16.068c0-4.441,2.873-7.185,5.225-8.49
	c3.004,8.099,8.099,15.283,15.937,15.676c6.14,0,10.059-3.397,10.059-10.451c0-6.14-5.486-10.451-10.451-16.068
	c-3.396-4.05-5.225-9.145-5.225-14.239c0-16.852,16.982-24.168,32.005-24.168c4.703,0,6.663,0.915,7.447,3.919
	c0,2.613-1.176,4.964-5.095,7.708c-2.613-2.613-5.226-3.789-7.577-3.789C52.932,54.922,50.58,57.926,50.58,63.021"/>
<path fill="#FDFDFE" d="M145.422,67.071c0,25.342-19.726,53.299-42.195,53.299c-4.18,0-8.49-0.785-12.279-2.483
	c-1.437,5.618-2.874,12.541-2.874,18.159c0,2.09,0.653,4.31,1.307,6.531c-4.703,2.351-9.145,3.266-12.28,3.266
	c-5.356,0-7.838-2.612-7.838-7.316c0-1.828,0.261-4.049,0.784-6.401c0.914-3.657,11.626-49.379,13.194-56.172
	c1.698-7.316,2.743-12.933,2.743-18.55c0-2.09-0.392-4.18-1.306-6.14c5.225-2.351,9.666-3.396,13.455-3.396
	c4.833,0,7.446,1.959,7.446,6.009c0,2.351-1.698,10.059-4.442,20.51c7.577-12.15,17.897-25.213,30.438-25.213
	c1.045,0,2.09,0.131,3.266,0.262C142.418,50.48,145.422,59.233,145.422,67.071 M126.219,70.99c0-5.095-1.175-7.969-4.05-7.969
	c-6.792,0-23.122,26.519-28.216,40.888c0.784,3.658,6.139,6.271,10.581,6.271c11.104,0,20.771-20.117,21.685-37.623V70.99z"/>
<path fill="#FEFFFF" d="M205.908,103.256c-4.311,8.753-15.807,17.374-22.73,17.374c-7.316,0-12.149-3.788-11.104-12.41
	c0.523-5.356,3.004-13.455,4.441-18.028c1.307-4.702,7.185-21.685,7.969-24.428c0.784-2.613,1.306-3.918-0.392-3.658
	c-1.176,0.262-6.401,1.045-11.495,1.045c-0.915,2.613-2.352,6.663-4.703,10.974c-2.352,4.18-5.356,8.491-8.231,10.712
	c-3.396,2.481-7.315,3.657-10.842,2.221c6.662-7.839,9.145-14.371,9.667-23.907c-12.28-4.571-1.568-21.554,3.919-20.378
	c-0.13,3.396-7.577,12.541,25.082,6.923c4.311-1.045,13.716-3.397,15.415,4.442c1.828,8.882-3.789,18.942-6.532,27.694
	c-2.221,7.446-4.703,13.847-5.095,18.55c-0.131,2.874-0.392,6.14,1.176,6.009c1.437-0.131,3.919-2.351,6.923-4.833
	C208.912,91.629,211.133,92.544,205.908,103.256"/>
<path fill="#FEFFFF" d="M239.744,102.473c5.747-6.27,8.622-7.969,8.622-5.356c0,1.307-0.654,3.657-2.09,7.054
	c-3.659,8.491-14.24,16.59-21.033,16.59c-6.923,0-11.104-3.918-11.626-12.017c-0.262-2.874,0-11.235,2.613-21.033
	c2.22-7.838,3.396-15.545,4.311-20.379c0.522-2.612,0.653-5.094,0.653-7.054c0-2.481-0.653-4.571-1.96-6.532
	c4.572-1.698,9.014-2.743,13.063-2.743c2.221,0,4.965,0.393,6.532,2.09c1.568,1.698,2.09,3.919,1.568,6.794
	c-0.392,2.09-0.784,4.18-1.437,6.531c-1.96,7.315-4.311,15.545-5.095,19.203c-1.045,4.572-1.959,12.018-1.959,15.807
	c0,2.612,0.13,5.617,1.436,5.617C234.91,107.045,237.131,104.955,239.744,102.473 M246.014,17.561c-6.27,0-12.41,1.176-17.766,3.266
	c0.261,0.653,0.653,1.176,0.653,1.829c0.13,5.225-2.09,12.671-2.09,16.459c0,2.09,1.437,4.834,6.924,3.658
	c7.576-1.568,7.445-1.437,13.193-10.319c3.397-5.226,4.573-7.447,5.226-9.929c0.13-0.653,0.13-1.045,0.13-1.567
	C252.154,18.998,250.064,17.561,246.014,17.561"/>
<path fill="#FEFFFF" d="M282.461,82.747c-6.401,10.32-8.361,15.415-14.5,30.698c-1.829,4.704-4.181,7.055-10.843,7.055
	c-2.612,0-6.009-0.392-10.189-1.046c2.874-7.185,5.486-14.761,7.707-22.076c5.095-16.852,7.054-29.131,7.054-36.186
	c0-3.266-0.391-6.271-1.436-8.492c5.747-2.612,10.319-3.657,13.716-3.657c3.266,0,6.923,1.698,6.923,6.271
	c0,5.356-2.22,13.586-4.702,23.775c8.099-15.153,22.338-30.438,33.311-30.438c5.879,0,9.929,4.049,9.929,9.536
	c0,5.879-1.829,15.154-4.311,25.344c-1.829,6.401-3.92,13.193-3.92,17.897c0,2.612,0.131,5.616,1.437,5.616
	c1.307,0,3.789-1.959,6.271-4.571c4.18-4.311,6.401-6.532,7.838-6.532c0.522,0,0.784,0.261,0.784,1.045
	c0,9.667-13.978,23.775-23.123,23.775c-6.923,0-11.756-3.788-11.756-12.018c0-4.442,1.306-9.014,2.612-14.893
	c3.397-14.761,5.226-24.167,5.226-26.126c0-2.09-0.915-2.874-1.96-2.874C294.871,64.85,288.601,73.08,282.461,82.747"/>
<path fill="#FEFFFF" d="M374.821,56.098c0,6.14-4.964,10.451-10.973,10.451c-2.613,0-3.789-0.131-6.14-0.131
	c-1.045,0-1.96,0-3.005,0.261c-1.306,6.271-2.874,13.325-4.703,20.249c-1.045,3.919-2.09,9.666-2.09,13.977
	c0.262,4.05,1.96,6.271,5.095,6.271c1.568,0,4.311-2.482,6.662-4.964c4.181-4.442,6.663-6.663,7.969-6.663
	c0.523,0,0.653,0.392,0.653,1.176c0,9.406-13.716,23.776-23.122,23.776c-10.843,0-15.154-6.532-15.154-16.983
	c0-2.613,0.393-5.356,0.784-8.099c1.306-7.707,1.699-9.928,4.311-20.771c2.874-10.973,5.879-24.428,5.879-32.005
	c0-2.483-0.262-4.573-1.437-7.185c5.486-3.135,9.928-4.311,14.108-4.311c4.18,0,6.401,2.482,6.401,6.401
	c0-0.392-0.653,5.878-3.135,18.681h5.486c3.92,0,7.969-0.262,12.411-0.915V56.098z"/>
<path fill="#FEFFFF" d="M403.038,63.021c0,2.613,1.307,4.965,3.397,7.577c5.617,6.794,11.365,12.933,11.365,22.47
	c0,15.676-14.37,27.824-30.177,27.824c-9.013,0-19.333-5.878-19.333-16.068c0-4.441,2.873-7.185,5.225-8.49
	c3.004,8.099,8.099,15.283,15.937,15.676c6.14,0,10.059-3.397,10.059-10.451c0-6.14-5.487-10.451-10.451-16.068
	c-3.396-4.05-5.225-9.145-5.225-14.239c0-16.852,16.983-24.168,32.005-24.168c4.703,0,6.663,0.915,7.446,3.919
	c0,2.613-1.175,4.964-5.094,7.708c-2.613-2.613-5.226-3.789-7.577-3.789C405.39,54.922,403.038,57.926,403.038,63.021"/>
<path fill="#FEFFFF" d="M508.161,115.928c1.045-5.487,8.361-43.631,9.536-48.727h-2.743c-2.874,0-7.185-0.914-7.185-2.743
	c0-0.262,0.13-0.391,0.13-0.522c2.091-6.01,3.397-7.186,12.15-7.186c0.522-2.22,1.045-4.441,1.567-6.531
	c4.703-19.203,21.816-29.523,40.758-29.523c7.054,0,12.41,1.306,12.41,7.185c0,2.873-3.397,6.401-9.928,9.536
	c-2.351-4.964-5.748-7.446-9.928-7.446c-3.266,0-7.577,2.744-9.537,5.617c-2.482,3.658-4.833,10.582-6.923,21.162h4.833
	c5.095,0,10.582-0.914,15.154-0.914c0.131,0.523,0.131,1.045,0.131,1.568c0,7.968-8.23,9.667-15.415,9.667
	c-2.352,0-4.703-0.131-7.055-0.131c-3.266,14.37-5.486,29.523-11.234,46.114c-4.442,12.802-14.37,23.122-27.172,27.956
	c-0.522,0.13-0.914,0.261-1.306,0.261c-1.829,0-2.351-0.915-2.351-1.959c0.13-0.916,0.653-1.176,1.436-2.09
	C502.021,131.866,506.593,124.289,508.161,115.928"/>
<path fill="#FEFFFF" d="M608.605,56.098c0,6.14-4.964,10.451-10.973,10.451c-2.613,0-3.789-0.131-6.139-0.131
	c-1.045,0-1.96,0-3.005,0.261c-1.306,6.271-2.875,13.325-4.703,20.249c-1.045,3.919-2.09,9.666-2.09,13.977
	c0.261,4.05,1.959,6.271,5.094,6.271c1.568,0,4.311-2.482,6.663-4.964c4.18-4.442,6.662-6.663,7.968-6.663
	c0.523,0,0.654,0.392,0.654,1.176c0,9.406-13.717,23.776-23.122,23.776c-10.843,0-15.154-6.532-15.154-16.983
	c0-2.613,0.392-5.356,0.783-8.099c1.307-7.707,1.699-9.928,4.311-20.771c2.875-10.973,5.88-24.428,5.88-32.005
	c0-2.483-0.262-4.573-1.438-7.185c5.487-3.135,9.929-4.311,14.109-4.311s6.4,2.482,6.4,6.401c0-0.392-0.653,5.878-3.134,18.681
	h5.486c3.919,0,7.969-0.262,12.41-0.915V56.098z"/>
</svg>
