<?xml version="1.0" encoding="utf-8"?>
<!-- Generator: Adobe Illustrator 15.0.0, SVG Export Plug-In . SVG Version: 6.00 Build 0)  -->
<!DOCTYPE svg PUBLIC "-//W3C//DTD SVG 1.1//EN" "http://www.w3.org/Graphics/SVG/1.1/DTD/svg11.dtd">
<svg version="1.1" id="Layer_1" xmlns="http://www.w3.org/2000/svg" xmlns:xlink="http://www.w3.org/1999/xlink" x="0px" y="0px"
	 width="248.87px" height="121.941px" viewBox="0 61.758 248.87 121.941" enable-background="new 0 61.758 248.87 121.941"
	 xml:space="preserve">
<g>
	<path fill="#161616" d="M222.864,109.005c0.129,0.258-0.227,3.966,0,4.104c0.206,0.144,0.769,0.104,0.952-0.099
		c0.198-0.389-0.047-2.914,0.198-4.005c0-0.435,1.467-0.285,1.641-0.37c0.17-0.116,0.129-0.625,0.081-0.778
		c-0.067-0.391-2.929-0.287-3.732-0.287c-0.29,0-0.575,0.104-0.575,0.287C221.086,109.06,222.639,108.37,222.864,109.005z"/>
	<path fill="#161616" d="M227.04,113.205c0.488-0.405,0.353-2.918,0.615-2.918c0.149,0,0.56,2.352,0.976,2.757
		c0.15,0.16,0.407,0.178,0.568,0.099c0.532-0.148,0.999-2.913,1.316-2.913c0.188,0-0.179,2.68,0.021,2.897
		c0.124,0.161,0.654,0.195,0.813-0.005c0.275-0.248,0.349-5.212,0.048-5.277c-0.263-0.195-1.248-0.202-1.366,0.013
		c-0.395,0.944-0.805,3.308-0.993,3.308c-0.225,0-0.71-2.911-1.064-3.389c-0.037-0.14-0.916-0.121-1.22,0
		c-0.37,0.122-0.612,5.068-0.422,5.27C226.454,113.176,226.654,113.256,227.04,113.205z"/>
	<path fill="#161616" d="M218.319,121.795h-0.781c4.153-11.629-0.475-16.848-5.96-15.667c-4.076,0.877-7.691,6.467-7.691,6.467
		c-3.229-0.442-7.011,6.024-9.564,12.534c-0.017,0.011-0.028,0.004-0.052,0.043c-2.34,4.043-12.325,16.665-17.35,16.665
		c-3.014,0-2.848-1.67-2.848-1.67c9.499-7.774,19.1-20.591,19.074-27.82c-0.016-4.051-4.072-5.312-5.41-5.148
		c-9.749,1.188-21.547,21.583-20.517,32.775c-2.135,2.147-5.318,4.755-7.343,3.679c-2.721-1.449-1.334-11.227-0.223-13.954
		c0,0,25.82-39.032,25.625-50.128c-0.056-3.202-3.265-4.458-4.433-4.458c-6.102,0-20.142,24.001-24.516,37.515
		c-1.392-1.011-2.868-1.42-4.346-1.391c-5.159,0-11.727,7.71-16.032,15.997c1.071-3.276,1.706-6.288,1.706-8.66
		c0-4.282-3.187-6.557-7.61-6.121c-2.236,0.222-5.903,2.431-8.898,7.111c0,0-0.89-1.531-2.42-1.531
		c-0.747,0-3.594,3.213-6.328,8.066c0.961-3.202,1.525-6.123,1.542-8.474c0.029-4.528-2.63-8.213-8.834-7.103
		c-2.57,0.461-6.848,2.82-10.326,8.253c0,0-1.033-1.775-2.805-1.775c-1.244,0-6.625,7.847-10.23,17.823
		c-4.182,7.033-14.171,20.48-16.43,20.48c-0.458,0-0.65-1.191-0.65-2.059c0-8.168,7.93-29.978,16.649-45.824
		c5.102-1.653,10.465-2.835,15.922-3.192c2.378-0.154,3.304,1.3,3.304,0c0-1.57-1.499-4.161-6.391-4.765
		c-1.444-0.18-4.651,0.262-8.896,1.311c2.369-3.667,4.717-6.692,6.906-8.686c1.462-2.167-4.987-4.031-10.166,1.89
		c-2.376,2.716-4.812,6.132-7.206,9.991c0,0-8.735,3.723-12.625,5.573c11.479-11.913,19.614-39.461,7.307-46.317
		c-14.453-8.048-42.83,18.594-42.398,41.184c0.276,14.511,16.484,18.673,17.134,34.526c0.787,19.153-15.064,36.497-25.668,36.933
		c-7.251,0.297-9.693-8.457-9.876-12.929c-0.885-21.566,14.811-27.38,14.811-27.38s0.157,1.184,1.347,1.137
		c1.19-0.051,2.201-1.824,2.126-3.665c-0.075-1.841-1.768-3.286-4.135-3.009c-11.758,1.387-23.519,18.561-22.782,36.523
		c0.457,11.146,6.896,17.494,15.553,17.139c16.666-0.683,38.603-26.082,37.804-45.561c-0.795-19.369-17.947-25.613-18.877-37.381
		c-1.153-14.592,22.024-36.687,30.886-31.255c10.134,6.209-3.231,38.069-13.13,45.345c-2.206,1.407,0.26,6.734,5.871,3.647
		c0,0,7.684-4.525,12.157-6.647c-8.68,16.345-15.807,36.761-15.807,47.696c0,6.115,4.977,16.279,24.067-11.132
		c-0.157,2.066,1.079,12.891,8.435,12.891c6.136,0,14.821-11.461,20.659-23.351c-0.554,2.316-0.899,4.706-0.916,7.098
		c-0.032,4.273,1.304,11.163,7.695,11.163c5.346,0,12.964-10.021,18-20.372c-0.659,2.27-1.023,4.382-0.992,6.153
		c0.058,3.466,1.436,10.489,8.029,10.489c5.159,0,11.963-11.541,11.963-11.541s0.927,8.881,8.4,8.881
		c3.031,0,6.19-2.804,8.725-5.293c1.52,2.684,3.932,3.728,5.488,3.765c6.818,0.162,14.085-7.654,17.33-11.631
		c-0.034,4.296,2.095,9.03,7.478,8.895c4.905-0.121,12.379-8.661,16.779-18.057c4.129-2.336,13.166-6.23,17.42-6.799
		c8.812-1.183,13,2.719,13.778,2.719C252.423,118.057,247.641,103.953,218.319,121.795z M178.835,84.783
		c0.305,0,0.443,0.252,0.456,0.91c0.109,6.383-18.109,34.542-18.109,34.542C163.284,110.271,176.268,84.783,178.835,84.783z
		 M87.544,154.31c-1.018,0-1.441-0.843-1.549-1.674c-0.438-3.334,0.799-11.506,5.121-20.698c0,0,1.28,2.925,2.738,2.925
		c0,0,7.854-17.375,12.346-17.375c0.568,0,1.225,0.454,1.225,1.463C107.423,128.228,93.665,154.31,87.544,154.31z M115.038,150.186
		c-0.876,0-1.205-0.731-1.335-1.44c-0.599-3.268,1.062-11.713,4.714-17.839c0,0,0.671,2.52,1.932,2.52l0.236-0.021
		c0.879-3.871,6.797-13.66,9.759-13.66c0.358,0,0.894,0.188,1.053,1.261C132.354,127.365,119.81,150.186,115.038,150.186z
		 M151.338,130.609c0,0-8.945,15.054-12.41,15.054c-0.437,0.199-0.614-0.771-0.614-0.771c-0.154-8.758,8.799-26.738,14.589-26.738
		c1.033,0,0.959,1.217,0.969,1.878C152.418,124.217,151.338,130.609,151.338,130.609z M174.023,134.095
		c0.649-5.065,5.916-14.809,10.203-17.852c2.448-1.736,3.998-0.731,2.291,2.388C184.115,122.634,177.903,130.772,174.023,134.095z
		 M199.346,140.89c-2.486,0-2.208-5.177-0.644-9.783c0.597,2.57,4.006,2.819,9.78-0.716
		C205.3,136.131,201.369,140.89,199.346,140.89z M211.347,124.636c-5.41,3.441-7.289,1.776-7.309-0.574
		c0.44-4.106,5.461-12.214,8.451-12.169C212.84,111.898,216.958,112.12,211.347,124.636z"/>
</g>
</svg>
